<mxfile host="app.diagrams.net" modified="2022-10-11T02:13:46.845Z" agent="5.0 (Windows NT 10.0; Win64; x64) AppleWebKit/537.36 (KHTML, like Gecko) Chrome/106.0.0.0 Safari/537.36" etag="IHuyhkhYPuznWfNHuYJx" version="20.4.0" type="github">
  <diagram id="oTt76Smp9wc4GRq8-iBr" name="第 1 页">
    <mxGraphModel dx="1550" dy="835" grid="1" gridSize="10" guides="1" tooltips="1" connect="1" arrows="1" fold="1" page="1" pageScale="1" pageWidth="827" pageHeight="1169" math="0" shadow="0">
      <root>
        <mxCell id="0" />
        <mxCell id="1" parent="0" />
        <mxCell id="SyAzOS2fpteDxxZ3ENVt-1" value="项目列表" style="rounded=0;whiteSpace=wrap;html=1;fontSize=20;" vertex="1" parent="1">
          <mxGeometry x="354" y="30" width="120" height="60" as="geometry" />
        </mxCell>
        <mxCell id="SyAzOS2fpteDxxZ3ENVt-4" value="选择一个项目" style="text;html=1;align=center;verticalAlign=middle;resizable=0;points=[];autosize=1;strokeColor=none;fillColor=none;fontSize=20;" vertex="1" parent="1">
          <mxGeometry x="420" y="110" width="140" height="40" as="geometry" />
        </mxCell>
        <mxCell id="SyAzOS2fpteDxxZ3ENVt-6" value="" style="strokeWidth=2;html=1;shape=mxgraph.flowchart.annotation_2;align=left;labelPosition=right;pointerEvents=1;fontSize=20;direction=south;verticalAlign=middle;" vertex="1" parent="1">
          <mxGeometry x="360" y="90" width="110" height="170" as="geometry" />
        </mxCell>
      </root>
    </mxGraphModel>
  </diagram>
</mxfile>
